<svg width="45" height="29" viewBox="0 0 45 29" fill="none" xmlns="http://www.w3.org/2000/svg">
<path d="M15.4449 7.90906C14.7607 7.90906 13.9794 8.27354 13.4732 8.80582C13.0818 9.24732 12.6566 9.94877 12.8037 10.6489C13.5056 10.7259 14.2722 10.3146 14.7122 9.78235C15.2007 9.29408 15.4773 8.60914 15.4449 7.90906ZM18.3907 10.6599V18.9122H19.762V16.0858H21.6705C23.3994 16.0858 24.6206 14.9745 24.6206 13.3735C24.6206 11.7574 23.4141 10.6599 21.7014 10.6599H18.3907ZM10.7953 11.3792C9.265 11.3792 8.09082 12.6308 8.09082 14.4257C8.09082 16.7639 9.84768 18.9122 10.9454 18.9122C11.6075 18.9122 11.8488 18.4955 12.7287 18.4955C13.5394 18.4955 13.7955 18.9122 14.4856 18.9122C15.7951 18.9122 16.8781 16.4228 16.9193 16.2715C16.703 16.1697 15.4435 15.6154 15.4449 14.2758C15.4449 12.9746 16.5941 12.3915 16.6485 12.3653C16.0129 11.481 15.0123 11.3792 14.6342 11.3792C13.7557 11.3792 12.9877 11.8234 12.5683 11.8234C12.1357 11.8234 11.4986 11.3792 10.7953 11.3792ZM19.762 11.7423H21.3423C22.5327 11.7423 23.2184 12.3365 23.2184 13.3735C23.2184 14.4106 22.5327 15.0199 21.3423 15.0199H19.762V11.7423ZM27.8518 12.7656C26.401 12.7656 25.3225 13.5441 25.2916 14.6114H26.529C26.6276 14.108 27.1323 13.7724 27.8165 13.7724C28.6641 13.7724 29.1246 14.1396 29.1246 14.8108V15.2674L27.4119 15.3747C25.8301 15.4669 24.9635 16.0762 24.9635 17.1284C24.9635 18.1957 25.8448 18.9122 27.1161 18.9122C27.9799 18.9122 28.7818 18.4996 29.1393 17.8587H29.1702V18.8504H30.443V14.7352C30.443 13.5454 29.4174 12.7656 27.8518 12.7656ZM31.0065 12.844L33.3225 18.8669L33.2078 19.2313C32.9959 19.842 32.6531 20.0868 32.0498 20.0868C31.9365 20.0868 31.7261 20.0703 31.6451 20.0703V21.0606C31.7275 21.0757 32.066 21.0909 32.1645 21.0909C33.5035 21.0909 34.1392 20.604 34.6954 19.1708L37.0908 12.844H35.7033L34.0906 17.7225H34.0553L32.4441 12.844H31.0065ZM29.1231 16.1339V16.5933C29.1231 17.3704 28.4213 17.9178 27.4928 17.9178C26.7571 17.9178 26.3025 17.6001 26.3025 17.0967C26.3025 16.5782 26.7424 16.2715 27.6076 16.2261L29.1231 16.1339Z" fill="black"/>
<path fill-rule="evenodd" clip-rule="evenodd" d="M42.3635 2.63636H2.818L2.818 26.3636H42.3635V2.63636ZM2.818 0C1.36198 0 0.181641 1.18034 0.181641 2.63636V26.3636C0.181641 27.8197 1.36198 29 2.818 29H42.3635C43.8195 29 44.9998 27.8197 44.9998 26.3636V2.63636C44.9998 1.18034 43.8195 0 42.3635 0H2.818Z" fill="black"/>
</svg>
