<svg width="20" height="20" viewBox="0 0 20 20" fill="none" xmlns="http://www.w3.org/2000/svg">
<path d="M18.3201 8.33317C18.2893 7.24061 18.1854 6.54405 17.8353 5.94962C17.3375 5.1042 16.441 4.63372 14.6479 3.69277L12.9813 2.81814C11.5182 2.05038 10.7867 1.6665 9.99984 1.6665C9.21294 1.6665 8.48143 2.05038 7.01841 2.81814L5.35175 3.69277C3.55869 4.63372 2.66217 5.1042 2.16433 5.94962C1.6665 6.79504 1.6665 7.84706 1.6665 9.9511V10.0486C1.6665 12.1526 1.6665 13.2046 2.16433 14.0501C2.66217 14.8955 3.55869 15.366 5.35175 16.3069L7.01841 17.1815C8.48143 17.9493 9.21294 18.3332 9.99984 18.3332C10.7867 18.3332 11.5182 17.9493 12.9813 17.1815L14.6479 16.3069C16.441 15.366 17.3375 14.8955 17.8353 14.0501C18.1854 13.4556 18.2893 12.7591 18.3201 11.6665" stroke="#505050" stroke-linecap="round"/>
<path d="M17.5 6.25L14.1667 7.91667M10 10L2.5 6.25M10 10V17.9167M10 10C10 10 12.2855 8.85723 13.75 8.125C13.9127 8.04364 14.1667 7.91667 14.1667 7.91667M14.1667 7.91667V10.8333M14.1667 7.91667L6.25 3.75" stroke="#505050" stroke-linecap="round"/>
</svg>
