<svg width="28" height="25" viewBox="0 0 28 25" fill="none" xmlns="http://www.w3.org/2000/svg">
<rect width="27.8491" height="24" transform="translate(0 0.595703)" fill="black"/>
<path d="M10.4434 5.05532C11.5012 4.76538 12.6603 4.5957 13.9246 4.5957C18.7771 4.5957 22.0797 7.09526 24.049 9.30003C25.0352 10.4042 25.5283 10.9563 25.5283 12.5957C25.5283 14.2351 25.0352 14.7872 24.049 15.8914C22.0797 18.0961 18.7771 20.5957 13.9246 20.5957C9.07201 20.5957 5.7694 18.0961 3.80016 15.8914C2.81392 14.7872 2.3208 14.2351 2.3208 12.5957C2.3208 10.9563 2.81392 10.4042 3.80016 9.30003C4.35856 8.67485 5.02417 8.02596 5.80193 7.41707" stroke="#F5F5F5" stroke-width="1.5" stroke-linecap="round"/>
<path d="M17.4056 12.5957C17.4056 14.2526 15.8471 15.5957 13.9245 15.5957C12.0019 15.5957 10.4434 14.2526 10.4434 12.5957C10.4434 10.9388 12.0019 9.5957 13.9245 9.5957C15.8471 9.5957 17.4056 10.9388 17.4056 12.5957Z" stroke="#F5F5F5" stroke-width="1.5"/>
</svg>
