<svg width="25" height="24" viewBox="0 0 25 24" fill="none" xmlns="http://www.w3.org/2000/svg">
<path d="M6.104 1C6.51822 1 6.854 1.33579 6.854 1.75V3.6L8.57468 3.25587C10.2252 2.92576 11.9361 3.08284 13.4989 3.70797L13.7026 3.78943C15.2637 4.41389 16.982 4.53051 18.6132 4.1227C19.3705 3.93339 20.104 4.50613 20.104 5.28669V12.6537C20.104 13.298 19.6655 13.8596 19.0404 14.0159L18.826 14.0695C17.0564 14.5119 15.1925 14.3854 13.4989 13.708C11.9361 13.0828 10.2252 12.9258 8.57468 13.2559L6.854 13.6V21.75C6.854 22.1642 6.51822 22.5 6.104 22.5C5.68979 22.5 5.354 22.1642 5.354 21.75V1.75C5.354 1.33579 5.68979 1 6.104 1Z" fill="#F43E3E"/>
</svg>
