<svg width="24" height="25" viewBox="0 0 24 25" fill="none" xmlns="http://www.w3.org/2000/svg">
<path d="M12.5 15.0386C12.3374 15.0659 12.1704 15.0801 12 15.0801C10.3431 15.0801 9 13.7369 9 12.0801C9 10.4232 10.3431 9.08008 12 9.08008C13.6569 9.08008 15 10.4232 15 12.0801C15 12.2504 14.9858 12.4175 14.9585 12.5801" stroke="#505050" stroke-width="1.5" stroke-linecap="round"/>
<path d="M2 12.0801L4 12.0801" stroke="#505050" stroke-width="1.5" stroke-linecap="round"/>
<path d="M20 12.0801L22 12.0801" stroke="#505050" stroke-width="1.5" stroke-linecap="round"/>
<path d="M12 4.08008V2.08008" stroke="#505050" stroke-width="1.5" stroke-linecap="round"/>
<path d="M12 22.0801V20.0801" stroke="#505050" stroke-width="1.5" stroke-linecap="round"/>
<path d="M8 5.15034C9.17669 4.46966 10.5429 4.08008 12 4.08008C16.4183 4.08008 20 7.6618 20 12.0801C20 16.4984 16.4183 20.0801 12 20.0801C7.58172 20.0801 4 16.4984 4 12.0801C4 10.6229 4.38958 9.25677 5.07026 8.08008" stroke="#505050" stroke-width="1.5" stroke-linecap="round"/>
</svg>
