<svg width="39" height="37" viewBox="0 0 39 37" fill="none" xmlns="http://www.w3.org/2000/svg">
<rect x="0.51709" width="38.1212" height="37" rx="7" fill="#F5F5F5"/>
<path fill-rule="evenodd" clip-rule="evenodd" d="M15.3649 11.5948C15.828 11.4146 16.3581 11.2916 17.134 11.2563C17.9115 11.2204 18.1601 11.2122 20.1394 11.2122C22.1186 11.2122 22.367 11.221 23.1441 11.2563C23.9194 11.291 24.4492 11.4146 24.9132 11.5948C25.3918 11.7808 25.7986 12.0298 26.2036 12.4354C26.6086 12.841 26.8577 13.2472 27.0443 13.7264C27.2245 14.1894 27.3475 14.7195 27.3828 15.4954C27.4181 16.2725 27.4263 16.5209 27.4263 18.5C27.4263 20.4792 27.4181 20.7271 27.3828 21.5047C27.348 22.2805 27.2245 22.8104 27.0443 23.2737C26.8577 23.7528 26.6093 24.1597 26.2036 24.5647C25.798 24.9697 25.3918 25.2187 24.9126 25.4053C24.4492 25.5854 23.9194 25.7085 23.1435 25.7438C22.3665 25.7797 22.118 25.7879 20.1388 25.7879C18.1595 25.7879 17.9115 25.7791 17.134 25.7438C16.3581 25.7085 15.8288 25.5854 15.3649 25.4053C14.8854 25.2187 14.4795 24.9695 14.0739 24.5647C13.6683 24.1599 13.4193 23.7528 13.2332 23.2737C13.0531 22.8104 12.9301 22.2806 12.8947 21.5047C12.8588 20.7276 12.8506 20.4792 12.8506 18.5C12.8506 16.5209 12.8588 16.2725 12.8947 15.4954C12.9301 14.7196 13.0531 14.1897 13.2332 13.7264C13.4193 13.2469 13.6683 12.8404 14.0739 12.4354C14.4795 12.0304 14.8854 11.7808 15.3649 11.5948ZM20.1381 16.0707C18.7966 16.0707 17.7092 17.1584 17.7092 18.5C17.7092 19.8417 18.7966 20.9293 20.1381 20.9293C21.4798 20.9293 22.5678 19.8414 22.5678 18.5C22.5678 17.1587 21.4798 16.0707 20.1381 16.0707ZM16.0896 18.5C16.0896 16.2643 17.9018 14.4512 20.1381 14.4512C22.3741 14.4512 24.1873 16.2641 24.1873 18.5C24.1873 20.736 22.3741 22.5489 20.1381 22.5489C17.9018 22.5489 16.0896 20.7358 16.0896 18.5ZM24.9971 14.4512C25.4443 14.4512 25.8068 14.0887 25.8068 13.6415C25.8068 13.1942 25.4443 12.8317 24.9971 12.8317C24.5498 12.8317 24.1873 13.1942 24.1873 13.6415C24.1873 14.0887 24.5498 14.4512 24.9971 14.4512Z" fill="#505050"/>
</svg>
