<svg width="25" height="25" viewBox="0 0 25 25" fill="none" xmlns="http://www.w3.org/2000/svg">
<path d="M22.8066 12.0181C22.8066 15.7893 22.8066 17.6749 21.6351 18.8465C20.4635 20.0181 18.5779 20.0181 14.8066 20.0181H10.8066C7.0354 20.0181 5.14979 20.0181 3.97821 18.8465C2.80664 17.6749 2.80664 15.7893 2.80664 12.0181C2.80664 8.24683 2.80664 6.36121 3.97821 5.18964C5.14979 4.01807 7.0354 4.01807 10.8066 4.01807H14.8066C18.5779 4.01807 20.4635 4.01807 21.6351 5.18964C22.2882 5.84282 22.5773 6.71795 22.7051 8.01807" stroke="#505050" stroke-width="1.5" stroke-linecap="round"/>
<path d="M18.8066 8.01807L16.6477 9.81715C14.8111 11.3477 13.8928 12.1129 12.8066 12.1129C12.1573 12.1129 11.568 11.8395 10.8066 11.2925M6.80664 8.01807L7.70664 8.76807L8.60664 9.51807" stroke="#505050" stroke-width="1.5" stroke-linecap="round"/>
</svg>
