<svg width="40" height="40" viewBox="0 0 40 40" fill="none" xmlns="http://www.w3.org/2000/svg">
<rect x="0.5" y="0.5" width="39" height="39" fill="black" stroke="black"/>
<path d="M23.7281 11.8841C25.1624 10.4442 27.2604 10.414 28.4219 11.5799C29.5856 12.7481 29.5542 14.8593 28.1189 16.3002L25.6951 18.7335C25.4028 19.0269 25.4037 19.5018 25.6971 19.7941C25.9906 20.0864 26.4655 20.0855 26.7578 19.7921L29.1816 17.3588C31.0929 15.4401 31.3329 12.3768 29.4846 10.5213C27.6342 8.66367 24.5776 8.90579 22.6653 10.8255L17.8177 15.6919C15.9064 17.6107 15.6664 20.674 17.5147 22.5295C17.807 22.8229 18.2819 22.8238 18.5754 22.5315C18.8688 22.2392 18.8697 21.7643 18.5774 21.4709C17.4138 20.3027 17.4451 18.1914 18.8804 16.7505L23.7281 11.8841Z" fill="#F5F5F5"/>
<path d="M22.4846 17.4709C22.1923 17.1774 21.7174 17.1765 21.4239 17.4688C21.1305 17.7611 21.1296 18.236 21.4219 18.5295C22.5856 19.6976 22.5542 21.8089 21.1189 23.2497L16.2713 28.1162C14.837 29.5561 12.7389 29.5864 11.5774 28.4204C10.4138 27.2522 10.4451 25.1409 11.8804 23.7001L14.3042 21.2668C14.5966 20.9733 14.5956 20.4985 14.3022 20.2062C14.0087 19.9138 13.5339 19.9147 13.2415 20.2082L10.8177 22.6415C8.90639 24.5602 8.66643 27.6235 10.5147 29.479C12.3652 31.3367 15.4217 31.0945 17.334 29.1748L22.1816 24.3083C24.0929 22.3896 24.3329 19.3263 22.4846 17.4709Z" fill="#F5F5F5"/>
</svg>
