<svg width="25" height="27" viewBox="0 0 25 27" fill="none" xmlns="http://www.w3.org/2000/svg">
<path fill-rule="evenodd" clip-rule="evenodd" d="M11.2966 9.01233C10.9915 9.3276 10.9915 9.83875 11.2966 10.154L13.0879 12.0051H4.55737C4.1259 12.0051 3.77612 12.3665 3.77612 12.8124C3.77612 13.2582 4.1259 13.6197 4.55737 13.6197H13.0879L11.2966 15.4707C10.9915 15.786 10.9915 16.2972 11.2966 16.6124C11.6017 16.9277 12.0964 16.9277 12.4015 16.6124L15.5265 13.3832C15.8316 13.068 15.8316 12.5568 15.5265 12.2415L12.4015 9.01233C12.0964 8.69706 11.6017 8.69706 11.2966 9.01233Z" fill="#F5F5F5"/>
<path d="M12.8907 6.62571C12.8907 7.10789 13.1764 7.52968 13.5063 7.87063L16.6313 11.0998C17.5466 12.0456 17.5466 13.5791 16.6313 14.5249L13.5063 17.7541C13.1764 18.0951 12.8907 18.5169 12.8907 18.999V21.4236C17.4931 21.4236 21.224 17.5682 21.224 12.8124C21.224 8.05654 17.4931 4.20117 12.8907 4.20117V6.62571Z" fill="#F5F5F5"/>
</svg>
