<svg width="45" height="29" viewBox="0 0 45 29" fill="none" xmlns="http://www.w3.org/2000/svg">
<path d="M2.09389 4.65052e-05C0.937844 4.65052e-05 0 0.96194 0 2.14877V26.8513C0 28.0379 0.937979 29 2.09389 29H42.9061C44.0622 29 45 28.0381 45 26.8513V2.14872C45 0.962078 44.062 0 42.9061 0H2.09385L2.09389 4.65052e-05ZM14.7558 3.49085C17.3244 3.49085 19.6835 4.4079 21.5353 5.93973C19.9773 7.37028 18.8152 9.24979 18.2419 11.3801H19.1405C19.6697 9.62267 20.631 8.05797 21.8981 6.81711C23.1652 8.05797 24.1265 9.62267 24.6557 11.3801H25.5684C24.9871 9.26101 23.8234 7.39273 22.2666 5.9715C24.1219 4.42023 26.4903 3.4908 29.07 3.4908C35.0231 3.4908 39.8489 8.44351 39.8489 14.5534C39.8489 20.6633 35.0231 25.616 29.07 25.616C26.4474 25.616 24.0426 24.6554 22.1737 23.0574C23.8455 21.5649 25.0779 19.5642 25.6416 17.288H24.7626C24.2621 19.1984 23.2549 20.8976 21.8981 22.2262C20.5413 20.8976 19.5354 19.1984 19.0349 17.288H18.1982C18.7651 19.5312 19.9815 21.504 21.6281 22.9824C19.7626 24.5606 17.3673 25.5092 14.7557 25.5092C8.80267 25.5092 3.97687 20.5803 3.97687 14.5C3.97687 8.41973 8.80267 3.49085 14.7558 3.49085ZM28.2614 11.2675C26.9662 11.2675 25.7062 12.4295 25.7062 14.6111C25.7062 16.0578 26.3868 17.0124 27.7256 17.0124C28.1041 17.0125 28.7072 16.8537 28.7072 16.8537L28.9068 15.5896C28.9068 15.5896 28.3565 15.8753 27.9787 15.8753C27.1829 15.8753 26.8636 15.2472 26.8636 14.5722C26.8636 13.2029 27.5483 12.4494 28.3106 12.4494C28.8822 12.4494 29.3414 12.7813 29.3414 12.7813L29.5242 11.5518C29.5242 11.5518 28.8446 11.2675 28.2614 11.2675ZM39.15 11.3744L38.0236 11.3772L37.7817 12.8982C37.7817 12.8982 37.3582 12.308 36.6961 12.308C35.6665 12.308 34.8089 13.5631 34.8089 15.0066C34.8089 15.9383 35.2653 16.8522 36.2011 16.8522C36.8742 16.8522 37.2473 16.3775 37.2473 16.3775L37.1981 16.7829H38.2922L39.15 11.3744ZM6.88778 11.3902L5.99062 16.8118H7.07201L7.75547 12.7236L7.85672 16.8118H8.63014L10.073 12.7236L9.43312 16.8118H10.582L11.468 11.3902H9.69047L8.58374 14.7165L8.5261 11.3902H6.88783L6.88778 11.3902ZM18.1856 11.7423C18.1612 11.7675 17.5317 15.4923 17.5317 15.946C17.5317 16.6177 17.8986 16.9177 18.4148 16.9128C18.7847 16.9096 19.0712 16.8142 19.2037 16.7743C19.2176 16.7705 19.2445 16.7628 19.2445 16.7628L19.3837 15.793C19.308 15.793 19.1965 15.8262 19.0983 15.8262C18.7128 15.8262 18.6701 15.6158 18.6946 15.4597L19.0055 13.4812H19.5919L19.7339 12.409H19.1812L19.2937 11.7423H18.1856ZM31.2567 12.2878C30.5019 12.2878 29.9236 12.5432 29.9236 12.5432L29.7632 13.539C29.7632 13.539 30.2409 13.3355 30.9628 13.3355C31.3727 13.3355 31.6729 13.3836 31.6729 13.7337C31.6729 13.9464 31.6364 14.0253 31.6364 14.0253C31.6364 14.0253 31.3123 13.9964 31.1625 13.9964C30.2106 13.9964 29.2106 14.4245 29.2106 15.7122C29.2106 16.7268 29.8671 16.959 30.2737 16.959C31.0503 16.959 31.3852 16.4296 31.403 16.428L31.3664 16.8696H32.3353L32.7684 13.6833C32.7686 12.3313 31.6464 12.2878 31.2567 12.2878V12.2878ZM13.0809 12.2936C12.3234 12.2936 11.7422 12.549 11.7422 12.549L11.5819 13.5447C11.5819 13.5447 12.0611 13.3412 12.7856 13.3412C13.197 13.3412 13.4986 13.3895 13.4986 13.7395C13.4986 13.9521 13.462 14.031 13.462 14.031C13.462 14.031 13.137 14.0022 12.9867 14.0022C12.0312 14.0022 11.0278 14.4296 11.0278 15.7165C11.0278 16.7306 11.6856 16.9634 12.0937 16.9634C12.8732 16.9634 13.2093 16.4339 13.2272 16.4323L13.1906 16.8739H14.1637L14.5983 13.689C14.5983 12.3378 13.472 12.2935 13.0809 12.2935V12.2936ZM16.5178 12.2936C15.7043 12.2936 14.8781 12.6305 14.8781 13.7814C14.8781 15.0854 16.2548 14.9536 16.2548 15.5029C16.2548 15.8696 15.8706 15.8998 15.5742 15.8998C15.0612 15.8998 14.5999 15.7179 14.5983 15.7267L14.4506 16.7224C14.4772 16.7308 14.7628 16.8623 15.6853 16.8623C15.933 16.8623 17.3489 16.9269 17.3489 15.4135C17.3489 13.9986 16.0383 14.2791 16.0383 13.7107C16.0383 13.4277 16.2511 13.3384 16.6415 13.3384C16.7966 13.3384 17.3939 13.3889 17.3939 13.3889L17.5317 12.383C17.5317 12.3832 17.1462 12.2936 16.5178 12.2936ZM21.6028 12.2936C20.4724 12.2938 19.6355 13.5412 19.6355 14.9503C19.6355 16.5766 20.684 16.9634 21.5775 16.9634C22.4021 16.9634 22.7657 16.7743 22.7657 16.7743L22.9626 15.6646C22.9626 15.6646 22.3353 15.9474 21.7687 15.9474C20.5616 15.9474 20.7731 15.0253 20.7731 15.0253H23.0582C23.0582 15.0253 23.2059 14.2801 23.2059 13.9762C23.2059 13.2179 22.8371 12.2936 21.6028 12.2936ZM25.6964 12.3412C25.1872 12.3412 24.809 13.044 24.809 13.044L24.9103 12.3989H23.8528L23.1427 16.8523H24.3112C24.6422 14.9505 24.7026 13.4064 25.4925 13.689C25.6307 12.953 25.7649 12.6686 25.9157 12.3571C25.9157 12.3571 25.8449 12.3412 25.6964 12.3412ZM35.1646 12.3412C34.6554 12.3412 34.2773 13.044 34.2773 13.044L34.3786 12.3989H33.3211L32.6109 16.8523H33.7781C34.1092 14.9505 34.1712 13.4064 34.9607 13.689C35.0992 12.953 35.2333 12.6686 35.3841 12.3571C35.3841 12.3571 35.3131 12.3412 35.1646 12.3412ZM21.5971 13.298C22.2392 13.298 22.1217 14.0416 22.1217 14.1017H20.8575C20.8575 14.025 20.977 13.298 21.5971 13.298ZM36.8733 13.3845C37.2819 13.3844 37.492 13.6677 37.492 14.3341C37.492 14.9387 37.1949 15.7468 36.5793 15.7468C36.1708 15.7468 35.9789 15.4006 35.9789 14.8579C35.9789 13.9705 36.3745 13.3845 36.8733 13.3845ZM31.2581 14.8997C31.4248 14.9 31.4592 14.9166 31.4873 14.9243C31.4833 14.9236 31.4825 14.9244 31.4986 14.9272C31.5197 15.1255 31.3818 16.0557 30.7153 16.0557C30.3716 16.0557 30.2836 15.7752 30.2836 15.6097C30.2836 15.287 30.4473 14.8997 31.2581 14.8997ZM13.0823 14.9041C13.2717 14.9043 13.2923 14.926 13.3242 14.9315C13.3454 15.1298 13.2069 16.0585 12.5381 16.0585C12.1931 16.0585 12.1036 15.7794 12.1036 15.6141C12.1036 15.2916 12.2683 14.9041 13.0823 14.9041Z" fill="black"/>
</svg>
