<svg width="38" height="39" viewBox="0 0 38 39" fill="none" xmlns="http://www.w3.org/2000/svg">
<rect x="2" y="3" width="36" height="36" fill="#F5F5F5"/>
<path d="M25.6243 19.0911V18.504C25.6243 15.28 23.1062 12.6665 20 12.6665C16.8938 12.6665 14.3757 15.28 14.3757 18.504V19.0911C14.3757 19.7958 14.1748 20.4847 13.7982 21.071L12.8753 22.5078C12.0324 23.8201 12.6759 25.6039 14.142 26.0189C17.9773 27.1046 22.0227 27.1046 25.858 26.0189C27.3241 25.6039 27.9676 23.8201 27.1247 22.5078L26.2018 21.071C25.8252 20.4847 25.6243 19.7958 25.6243 19.0911Z" stroke="#505050"/>
<path d="M16.25 26.8335C16.7959 28.29 18.2687 29.3335 20 29.3335C21.7313 29.3335 23.2041 28.29 23.75 26.8335" stroke="#505050" stroke-linecap="round"/>
<path d="M20 16V19.3333" stroke="#505050" stroke-linecap="round"/>
<circle cx="4" cy="5" r="4.5" fill="#F0516D" stroke="white"/>
</svg>
