<svg width="45" height="29" viewBox="0 0 45 29" fill="none" xmlns="http://www.w3.org/2000/svg">
<path d="M14.5508 14.6888C14.5508 15.1545 14.3848 15.5416 14.0527 15.8499C13.7207 16.1583 13.3138 16.3125 12.832 16.3125C12.4544 16.3125 12.1517 16.2118 11.9238 16.0104C11.696 15.809 11.582 15.5321 11.582 15.1797C11.582 14.714 11.7448 14.3206 12.0703 13.9997C12.3958 13.6787 12.7995 13.5182 13.2812 13.5182C13.6458 13.5182 13.9486 13.6221 14.1895 13.8298C14.4303 14.0374 14.5508 14.3238 14.5508 14.6888ZM29.8828 11.8757C29.8828 12.4043 29.7396 12.763 29.4531 12.9518C29.1667 13.1406 28.737 13.235 28.1641 13.235L27.5391 13.2539L27.8711 11.2337C27.8971 11.0953 27.9818 11.026 28.125 11.026H28.4766C28.763 11.026 28.9909 11.0386 29.1602 11.0638C29.3294 11.089 29.4922 11.1676 29.6484 11.2998C29.8047 11.432 29.8828 11.6239 29.8828 11.8757ZM36.7383 14.6888C36.7383 15.1419 36.5723 15.5258 36.2402 15.8405C35.9082 16.1552 35.5078 16.3125 35.0391 16.3125C34.6615 16.3125 34.3555 16.2118 34.1211 16.0104C33.8867 15.809 33.7695 15.5321 33.7695 15.1797C33.7695 14.714 33.9323 14.3206 34.2578 13.9997C34.5833 13.6787 34.987 13.5182 35.4688 13.5182C35.8333 13.5182 36.1361 13.6221 36.377 13.8298C36.6178 14.0374 36.7383 14.3238 36.7383 14.6888ZM10.0195 11.4603C10.0195 10.7177 9.76888 10.1796 9.26758 9.84603C8.76628 9.51248 8.11198 9.3457 7.30469 9.3457H4.17969C3.93229 9.3457 3.79557 9.46528 3.76953 9.70443L2.5 17.4076C2.48698 17.4831 2.50651 17.5523 2.55859 17.6152C2.61068 17.6782 2.67578 17.7096 2.75391 17.7096H4.23828C4.4987 17.7096 4.64193 17.5901 4.66797 17.3509L5.01953 15.2741C5.03255 15.1734 5.07812 15.0916 5.15625 15.0286C5.23438 14.9657 5.33203 14.9248 5.44922 14.9059C5.56641 14.887 5.67708 14.8776 5.78125 14.8776C5.88542 14.8776 6.00911 14.8839 6.15234 14.8965C6.29557 14.9091 6.38672 14.9154 6.42578 14.9154C7.54557 14.9154 8.42448 14.6101 9.0625 13.9997C9.70052 13.3892 10.0195 12.5428 10.0195 11.4603ZM16.0547 17.3509L16.8555 12.4232C16.8685 12.3477 16.849 12.2784 16.7969 12.2155C16.7448 12.1526 16.6797 12.1211 16.6016 12.1211H15.1172C14.9349 12.1211 14.8242 12.3288 14.7852 12.7441C14.4336 12.2407 13.8151 11.9889 12.9297 11.9889C11.9922 11.9889 11.1947 12.3288 10.5371 13.0085C9.87956 13.6882 9.55078 14.4874 9.55078 15.4063C9.55078 16.1489 9.77539 16.7405 10.2246 17.181C10.6738 17.6215 11.276 17.8418 12.0312 17.8418C12.3958 17.8418 12.7734 17.7663 13.1641 17.6152C13.5547 17.4642 13.8672 17.2628 14.1016 17.0111C14.0495 17.1621 14.0234 17.2943 14.0234 17.4076C14.0234 17.6089 14.1081 17.7096 14.2773 17.7096H15.625C15.8724 17.7096 16.0156 17.5901 16.0547 17.3509ZM24.7852 12.3854C24.7852 12.3225 24.7591 12.2627 24.707 12.2061C24.6549 12.1494 24.5964 12.1211 24.5312 12.1211H23.0273C22.8841 12.1211 22.7669 12.184 22.6758 12.3099L20.6055 15.2552L19.7461 12.4232C19.681 12.2218 19.5378 12.1211 19.3164 12.1211H17.8516C17.7865 12.1211 17.7279 12.1494 17.6758 12.2061C17.6237 12.2627 17.5977 12.3225 17.5977 12.3854C17.5977 12.4106 17.7246 12.7819 17.9785 13.4993C18.2324 14.2168 18.5059 14.9909 18.7988 15.8216C19.0918 16.6523 19.2448 17.0929 19.2578 17.1432C18.1901 18.553 17.6562 19.3082 17.6562 19.4089C17.6562 19.5725 17.7409 19.6543 17.9102 19.6543H19.4141C19.5573 19.6543 19.6745 19.5914 19.7656 19.4655L24.7461 12.5176C24.7721 12.4924 24.7852 12.4484 24.7852 12.3854ZM32.207 11.4603C32.207 10.7177 31.9564 10.1796 31.4551 9.84603C30.9538 9.51248 30.2995 9.3457 29.4922 9.3457H26.3867C26.1263 9.3457 25.9831 9.46528 25.957 9.70443L24.6875 17.4076C24.6745 17.4831 24.694 17.5523 24.7461 17.6152C24.7982 17.6782 24.8633 17.7096 24.9414 17.7096H26.543C26.6992 17.7096 26.8034 17.6278 26.8555 17.4642L27.207 15.2741C27.2201 15.1734 27.2656 15.0916 27.3438 15.0286C27.4219 14.9657 27.5195 14.9248 27.6367 14.9059C27.7539 14.887 27.8646 14.8776 27.9688 14.8776C28.0729 14.8776 28.1966 14.8839 28.3398 14.8965C28.4831 14.9091 28.5742 14.9154 28.6133 14.9154C29.7331 14.9154 30.612 14.6101 31.25 13.9997C31.888 13.3892 32.207 12.5428 32.207 11.4603ZM38.2422 17.3509L39.043 12.4232C39.056 12.3477 39.0365 12.2784 38.9844 12.2155C38.9323 12.1526 38.8672 12.1211 38.7891 12.1211H37.3047C37.1224 12.1211 37.0117 12.3288 36.9727 12.7441C36.6341 12.2407 36.0156 11.9889 35.1172 11.9889C34.1797 11.9889 33.3822 12.3288 32.7246 13.0085C32.0671 13.6882 31.7383 14.4874 31.7383 15.4063C31.7383 16.1489 31.9629 16.7405 32.4121 17.181C32.8613 17.6215 33.4635 17.8418 34.2188 17.8418C34.5964 17.8418 34.9805 17.7663 35.3711 17.6152C35.7617 17.4642 36.0677 17.2628 36.2891 17.0111C36.2891 17.0237 36.276 17.0803 36.25 17.181C36.224 17.2817 36.2109 17.3572 36.2109 17.4076C36.2109 17.6089 36.2956 17.7096 36.4648 17.7096H37.8125C38.0599 17.7096 38.2031 17.5901 38.2422 17.3509ZM42.5 9.62891V9.61003C42.5 9.43381 42.4154 9.3457 42.2461 9.3457H40.8008C40.6576 9.3457 40.5729 9.41493 40.5469 9.55339L39.2773 17.4076L39.2578 17.4453C39.2578 17.5082 39.2839 17.568 39.3359 17.6247C39.388 17.6813 39.4531 17.7096 39.5312 17.7096H40.8203C41.0677 17.7096 41.2044 17.5901 41.2305 17.3509L42.5 9.62891ZM7.65625 12.1589C7.59115 12.5994 7.42188 12.8889 7.14844 13.0273C6.875 13.1658 6.48438 13.235 5.97656 13.235L5.33203 13.2539L5.66406 11.2337C5.6901 11.0953 5.77474 11.026 5.91797 11.026H6.28906C6.8099 11.026 7.1875 11.0984 7.42188 11.2432C7.65625 11.3879 7.73438 11.6931 7.65625 12.1589ZM45 2.41667V26.5833C45 27.2378 44.7526 27.8043 44.2578 28.2826C43.763 28.7609 43.1771 29 42.5 29H2.5C1.82292 29 1.23698 28.7609 0.742188 28.2826C0.247396 27.8043 0 27.2378 0 26.5833V2.41667C0 1.76215 0.247396 1.19575 0.742188 0.717448C1.23698 0.239149 1.82292 0 2.5 0H42.5C43.1771 0 43.763 0.239149 44.2578 0.717448C44.7526 1.19575 45 1.76215 45 2.41667Z" fill="black"/>
</svg>
