<svg width="24" height="24" viewBox="0 0 24 24" fill="none" xmlns="http://www.w3.org/2000/svg">
<path d="M8.41494 5.39843L9.10452 6.63404C9.72682 7.74912 9.47701 9.21191 8.49688 10.192C8.49688 10.192 8.49688 10.192 8.49688 10.192C8.49676 10.1922 7.30812 11.381 9.46355 13.5365C11.6183 15.6912 12.8071 14.5039 12.808 14.5031C12.808 14.5031 12.808 14.5031 12.808 14.5031C13.7881 13.523 15.2509 13.2732 16.366 13.8955L17.6016 14.5851C19.2853 15.5248 19.4842 17.8861 18.0042 19.3661C17.1149 20.2554 16.0254 20.9474 14.8211 20.993C12.7937 21.0699 9.35067 20.5568 5.89693 17.1031C2.4432 13.6493 1.9301 10.2063 2.00696 8.17891C2.05262 6.97458 2.7446 5.88512 3.63392 4.99581C5.11393 3.5158 7.47525 3.71465 8.41494 5.39843Z" fill="#505050"/>
<path d="M12.01 1.66299C12.0797 1.23257 12.4867 0.940596 12.9172 1.01028C12.9439 1.01538 13.0296 1.0314 13.0746 1.0414C13.1644 1.06141 13.2897 1.09221 13.446 1.13771C13.7585 1.2287 14.1951 1.3786 14.719 1.61875C15.7681 2.09956 17.1641 2.94063 18.6127 4.38887C20.0614 5.83711 20.9027 7.23273 21.3837 8.28147C21.6239 8.80529 21.7738 9.24172 21.8648 9.55412C21.9104 9.71034 21.9412 9.83564 21.9612 9.92546C21.9712 9.97038 21.9785 10.0064 21.9836 10.0331L21.9896 10.0659C22.0593 10.4963 21.7699 10.9201 21.3394 10.9897C20.9101 11.0592 20.5056 10.7687 20.4342 10.3403C20.432 10.3288 20.426 10.2978 20.4195 10.2687C20.4065 10.2104 20.384 10.118 20.3484 9.99568C20.2772 9.75111 20.1534 9.3876 19.9479 8.93951C19.5374 8.04443 18.7993 6.80842 17.4959 5.50538C16.1925 4.20234 14.9561 3.46444 14.0608 3.05408C13.6126 2.84865 13.249 2.72493 13.0043 2.65369C12.882 2.61808 12.7283 2.5828 12.67 2.56982C12.2415 2.49842 11.9405 2.09218 12.01 1.66299Z" fill="#505050"/>
<path fill-rule="evenodd" clip-rule="evenodd" d="M12.2482 5.29408C12.368 4.87484 12.8051 4.63208 13.2245 4.75186L13.0076 5.51097C13.2245 4.75186 13.2245 4.75186 13.2245 4.75186L13.226 4.7523L13.2276 4.75276L13.2311 4.75379L13.2393 4.75622L13.2601 4.76271C13.276 4.76779 13.2958 4.7744 13.3195 4.78278C13.3668 4.79956 13.4293 4.82342 13.5059 4.85626C13.6593 4.92199 13.8689 5.02348 14.1264 5.17581C14.6418 5.48075 15.3454 5.98726 16.1719 6.81357C16.9984 7.63987 17.5051 8.34324 17.8101 8.85847C17.9625 9.11586 18.064 9.32541 18.1298 9.47876C18.1626 9.5554 18.1865 9.61788 18.2033 9.66516C18.2116 9.68879 18.2183 9.70861 18.2233 9.72449L18.2298 9.74531L18.2323 9.75347L18.2333 9.75698L18.2338 9.7586C18.2338 9.7586 18.2342 9.76011 17.4749 9.977L18.2342 9.76011C18.354 10.1794 18.1112 10.6163 17.6918 10.7361C17.276 10.8549 16.8428 10.6172 16.7186 10.2045L16.7148 10.1932C16.7091 10.1774 16.6975 10.1462 16.678 10.1008C16.6391 10.0099 16.5684 9.8612 16.4509 9.66268C16.2161 9.2661 15.7921 8.66688 15.0551 7.93007C14.318 7.19327 13.7187 6.76936 13.322 6.53465C13.1234 6.41715 12.9747 6.34652 12.8838 6.30757C12.8383 6.28808 12.8071 6.27647 12.7913 6.27086L12.78 6.26697C12.3671 6.14288 12.1294 5.70977 12.2482 5.29408Z" fill="#505050"/>
</svg>
