<svg width="25" height="25" viewBox="0 0 25 25" fill="none" xmlns="http://www.w3.org/2000/svg">
<path d="M14.3066 2.7085C14.3066 2.7085 16.6401 2.92063 19.6099 5.89048C22.5798 8.86033 22.7919 11.1938 22.7919 11.1938" stroke="#505050" stroke-width="1.5" stroke-linecap="round"/>
<path d="M15.0137 6.24414C15.0137 6.24414 16.0036 6.52698 17.4885 8.01191C18.9735 9.49683 19.2563 10.4868 19.2563 10.4868" stroke="#505050" stroke-width="1.5" stroke-linecap="round"/>
<path d="M15.9074 15.7357L16.4512 16.2522V16.2522L15.9074 15.7357ZM16.3628 15.2562L15.8191 14.7397V14.7397L16.3628 15.2562ZM18.7795 14.9208L18.4054 15.5708H18.4054L18.7795 14.9208ZM20.69 16.0205L20.3159 16.6705L20.69 16.0205ZM21.2284 19.4669L21.7721 19.9834L21.7721 19.9834L21.2284 19.4669ZM19.8078 20.9625L19.264 20.446L19.8078 20.9625ZM18.483 21.6716L18.5566 22.418L18.483 21.6716ZM8.62204 17.1837L9.16584 16.6672L8.62204 17.1837ZM4.55849 7.63423C4.53629 7.22062 4.18299 6.90331 3.76937 6.92551C3.35575 6.94771 3.03845 7.30101 3.06065 7.71463L4.55849 7.63423ZM9.99739 9.51357L10.5412 10.0301L9.99739 9.51357ZM10.2842 9.21161L10.828 9.72812L10.2842 9.21161ZM10.4409 6.4016L11.0533 5.96861L10.4409 6.4016ZM9.17994 4.61811L8.56754 5.05109V5.05109L9.17994 4.61811ZM5.52434 3.80062C5.23908 4.10095 5.25129 4.57567 5.55162 4.86093C5.85195 5.1462 6.32666 5.13398 6.61193 4.83365L5.52434 3.80062ZM11.8698 13.7644L12.4136 13.2479L11.8698 13.7644ZM11.4707 20.5208C11.8215 20.7412 12.2844 20.6356 12.5048 20.2849C12.7252 19.9341 12.6196 19.4712 12.2689 19.2508L11.4707 20.5208ZM15.9196 20.7669C15.5142 20.682 15.1167 20.9419 15.0318 21.3473C14.9469 21.7527 15.2068 22.1502 15.6122 22.2351L15.9196 20.7669ZM16.4512 16.2522L16.9066 15.7727L15.8191 14.7397L15.3636 15.2192L16.4512 16.2522ZM18.4054 15.5708L20.3159 16.6705L21.0641 15.3705L19.1536 14.2708L18.4054 15.5708ZM20.6846 18.9504L19.264 20.446L20.3516 21.479L21.7721 19.9834L20.6846 18.9504ZM9.16584 16.6672C5.28971 12.5863 4.63953 9.14405 4.55849 7.63423L3.06065 7.71463C3.1599 9.56385 3.94508 13.3488 8.07825 17.7002L9.16584 16.6672ZM10.5412 10.0301L10.828 9.72812L9.74041 8.69509L9.45359 8.99705L10.5412 10.0301ZM11.0533 5.96861L9.79233 4.18513L8.56754 5.05109L9.82853 6.83458L11.0533 5.96861ZM9.99739 9.51357C9.45359 8.99705 9.4529 8.99778 9.4522 8.99852C9.45197 8.99877 9.45127 8.99952 9.45079 9.00002C9.44984 9.00103 9.44887 9.00207 9.44789 9.00313C9.44592 9.00524 9.44388 9.00746 9.44179 9.00976C9.43759 9.01438 9.43314 9.01937 9.42846 9.02475C9.41911 9.0355 9.40883 9.04781 9.39784 9.0617C9.37586 9.08947 9.35099 9.12361 9.3249 9.16438C9.27259 9.24614 9.21586 9.3538 9.16781 9.48883C9.0701 9.7634 9.01686 10.127 9.08339 10.5811C9.2141 11.4732 9.79866 12.6729 11.326 14.2809L12.4136 13.2479C10.9859 11.7448 10.6343 10.8191 10.5675 10.3636C10.5353 10.1439 10.5681 10.0281 10.581 9.99171C10.5883 9.97127 10.593 9.96558 10.5884 9.97286C10.5861 9.97639 10.5816 9.983 10.5741 9.99256C10.5703 9.99734 10.5657 10.0029 10.5603 10.0091C10.5576 10.0122 10.5546 10.0156 10.5514 10.0191C10.5499 10.0208 10.5482 10.0226 10.5465 10.0244C10.5456 10.0254 10.5448 10.0263 10.5439 10.0272C10.5434 10.0277 10.5428 10.0284 10.5425 10.0286C10.5419 10.0294 10.5412 10.0301 9.99739 9.51357ZM11.326 14.2809C12.8489 15.8842 13.999 16.5145 14.8765 16.657C15.3268 16.7301 15.6913 16.6717 15.9673 16.5629C16.1022 16.5096 16.2089 16.4472 16.289 16.3903C16.329 16.362 16.3622 16.3351 16.3891 16.3116C16.4025 16.2998 16.4144 16.2888 16.4247 16.2788C16.4299 16.2739 16.4347 16.2691 16.4391 16.2647C16.4413 16.2625 16.4434 16.2603 16.4454 16.2582C16.4464 16.2572 16.4474 16.2562 16.4484 16.2552C16.4489 16.2547 16.4496 16.2539 16.4498 16.2537C16.4505 16.2529 16.4512 16.2522 15.9074 15.7357C15.3636 15.2192 15.3643 15.2185 15.365 15.2177C15.3652 15.2175 15.3659 15.2168 15.3663 15.2163C15.3672 15.2154 15.3681 15.2145 15.369 15.2136C15.3707 15.2118 15.3724 15.21 15.3741 15.2083C15.3775 15.205 15.3807 15.2018 15.3837 15.1989C15.3897 15.1931 15.3951 15.1881 15.3999 15.1839C15.4095 15.1755 15.4166 15.1701 15.4212 15.1668C15.4306 15.1602 15.4296 15.1625 15.4169 15.1675C15.3976 15.1751 15.3067 15.2072 15.117 15.1764C14.7144 15.111 13.8457 14.7557 12.4136 13.2479L11.326 14.2809ZM9.79233 4.18513C8.77874 2.75155 6.75052 2.50968 5.52434 3.80062L6.61193 4.83365C7.13476 4.28321 8.05519 4.32645 8.56754 5.05109L9.79233 4.18513ZM19.264 20.446C18.985 20.7398 18.693 20.8972 18.4093 20.9252L18.5566 22.418C19.3037 22.3442 19.9082 21.9458 20.3516 21.479L19.264 20.446ZM10.828 9.72812C11.7956 8.70945 11.8641 7.11528 11.0533 5.96861L9.82853 6.83458C10.2507 7.43164 10.1859 8.22603 9.74041 8.69509L10.828 9.72812ZM20.3159 16.6705C21.1367 17.143 21.2974 18.3053 20.6846 18.9504L21.7721 19.9834C23.0771 18.6095 22.6971 16.3104 21.0641 15.3705L20.3159 16.6705ZM16.9066 15.7727C17.2921 15.3669 17.8927 15.2757 18.4054 15.5708L19.1536 14.2708C18.0552 13.6385 16.6928 13.8198 15.8191 14.7397L16.9066 15.7727ZM12.2689 19.2508C11.2851 18.6326 10.2381 17.7961 9.16584 16.6672L8.07825 17.7002C9.23228 18.9152 10.3756 19.8326 11.4707 20.5208L12.2689 19.2508ZM18.4093 20.9252C17.8627 20.9792 16.9979 20.9927 15.9196 20.7669L15.6122 22.2351C16.8607 22.4965 17.8809 22.4847 18.5566 22.418L18.4093 20.9252Z" fill="#505050"/>
</svg>
