<svg width="31" height="32" viewBox="0 0 31 32" fill="none" xmlns="http://www.w3.org/2000/svg">
<g clip-path="url(#clip0_96_6101)">
<path d="M17.8275 22.4541L22.127 20.3043C25.8829 18.4264 27.7609 17.4874 27.7609 16.0004C27.7609 14.5134 25.8829 13.5744 22.127 11.6965L17.8275 9.54673C14.7961 8.03103 13.2804 7.27317 12.4017 7.5058C11.5658 7.72711 10.9129 8.37998 10.6916 9.2159C10.459 10.0946 11.2168 11.6103 12.7325 14.6417C12.9204 15.0174 13.3044 15.2673 13.7244 15.2693L20.5879 15.3012C20.9741 15.303 21.2856 15.6175 21.2838 16.0037C21.282 16.3898 20.9676 16.7014 20.5814 16.6996L13.8288 16.6681C13.3658 16.666 12.9396 16.945 12.7325 17.3591C11.2168 20.3905 10.459 21.9062 10.6916 22.7849C10.9129 23.6208 11.5658 24.2737 12.4017 24.495C13.2804 24.7276 14.7961 23.9698 17.8275 22.4541Z" fill="#F5F5F5"/>
</g>
<defs>
<clipPath id="clip0_96_6101">
<rect width="21.2545" height="21.2545" fill="white" transform="translate(15.9705 0.971191) rotate(45)"/>
</clipPath>
</defs>
</svg>
