<svg width="20" height="20" viewBox="0 0 20 20" fill="none" xmlns="http://www.w3.org/2000/svg">
<circle cx="10" cy="10" r="2.5" stroke="#505050"/>
<path d="M3.05094 8.86581C3.44472 9.11323 3.6981 9.53473 3.6981 9.99979C3.6981 10.4649 3.44472 10.8863 3.05094 11.1338C2.78297 11.3021 2.61032 11.4367 2.48748 11.5968C2.21839 11.9475 2.09964 12.3907 2.15733 12.8289C2.2006 13.1576 2.39475 13.4939 2.78303 14.1664C3.17132 14.8389 3.36546 15.1752 3.62847 15.377C3.97915 15.6461 4.42237 15.7649 4.86062 15.7072C5.06065 15.6808 5.26349 15.5986 5.54322 15.4508C5.95445 15.2334 6.44624 15.2248 6.84905 15.4573C7.25181 15.6899 7.49014 16.1201 7.50752 16.5849C7.51935 16.9011 7.54957 17.1179 7.62679 17.3043C7.79594 17.7127 8.1204 18.0371 8.52878 18.2063C8.83506 18.3332 9.22335 18.3332 9.99992 18.3332C10.7765 18.3332 11.1648 18.3332 11.4711 18.2063C11.8794 18.0371 12.2039 17.7127 12.373 17.3043C12.4503 17.1179 12.4805 16.9011 12.4923 16.5849C12.5097 16.1201 12.748 15.6899 13.1508 15.4574C13.5536 15.2248 14.0453 15.2335 14.4565 15.4508C14.7363 15.5987 14.9392 15.6809 15.1392 15.7073C15.5775 15.765 16.0207 15.6462 16.3714 15.3771C16.6344 15.1753 16.8285 14.839 17.2168 14.1665C17.3897 13.8671 17.524 13.6343 17.6238 13.4392M16.9489 11.1338C16.5551 10.8864 16.3017 10.465 16.3017 9.99991C16.3017 9.5348 16.5551 9.11326 16.9489 8.86581C17.2168 8.69747 17.3894 8.56291 17.5123 8.40283C17.7813 8.05215 17.9001 7.60893 17.8424 7.17069C17.7991 6.84201 17.605 6.50574 17.2167 5.83321C16.8284 5.16068 16.6343 4.82442 16.3713 4.6226C16.0206 4.35351 15.5774 4.23475 15.1391 4.29245C14.9391 4.31879 14.7362 4.40101 14.4565 4.54887C14.0453 4.7662 13.5535 4.77487 13.1507 4.5423C12.748 4.30976 12.5097 3.87959 12.4923 3.41486C12.4805 3.0986 12.4503 2.88179 12.373 2.69536C12.2039 2.28698 11.8794 1.96253 11.4711 1.79337C11.1648 1.6665 10.7765 1.6665 9.99992 1.6665C9.22335 1.6665 8.83506 1.6665 8.52878 1.79337C8.1204 1.96253 7.79594 2.28699 7.62678 2.69536C7.54957 2.88178 7.51935 3.09857 7.50752 3.41479C7.49014 3.87955 7.25179 4.30976 6.84901 4.54231C6.44623 4.77485 5.95449 4.76616 5.54329 4.54883C5.26353 4.40097 5.06067 4.31874 4.86063 4.29241C4.42238 4.23471 3.97916 4.35347 3.62848 4.62256C3.36547 4.82438 3.17132 5.16064 2.78304 5.83317C2.61018 6.13257 2.47579 6.36533 2.37607 6.56045" stroke="#505050" stroke-linecap="round"/>
</svg>
