<svg width="20" height="20" viewBox="0 0 20 20" fill="none" xmlns="http://www.w3.org/2000/svg">
<path d="M10 6.6665V9.99984" stroke="#505050" stroke-linecap="round"/>
<circle cx="9.99984" cy="12.4998" r="0.5" fill="#505050" stroke="#505050" stroke-width="0.666666"/>
<path d="M2.5 8.68038C2.5 6.01573 2.5 4.6834 2.8146 4.23518C3.12919 3.78695 4.38194 3.35813 6.88743 2.5005L7.36477 2.3371C8.67082 1.89004 9.32384 1.6665 10 1.6665C10.6762 1.6665 11.3292 1.89004 12.6352 2.3371L13.1126 2.5005C15.6181 3.35813 16.8708 3.78695 17.1854 4.23518C17.5 4.6834 17.5 6.01573 17.5 8.68038C17.5 9.08288 17.5 9.51935 17.5 9.99264C17.5 12.0801 16.8027 13.6902 15.8333 14.92M2.6607 11.6665C3.37521 15.2485 6.31368 17.0939 8.2488 17.9392C8.85001 18.2019 9.15062 18.3332 10 18.3332C10.8494 18.3332 11.15 18.2019 11.7512 17.9392C12.233 17.7288 12.777 17.4563 13.3333 17.1105" stroke="#505050" stroke-linecap="round"/>
</svg>
