<svg width="25" height="25" viewBox="0 0 25 25" fill="none" xmlns="http://www.w3.org/2000/svg">
<path d="M12.5552 24.54C19.1826 24.54 24.5552 19.1675 24.5552 12.54C24.5552 5.91262 19.1826 0.540039 12.5552 0.540039C5.92776 0.540039 0.555176 5.91262 0.555176 12.54C0.555176 19.1675 5.92776 24.54 12.5552 24.54Z" fill="#438611"/>
<path d="M12.4352 10.4202C12.3952 10.0602 12.5952 9.70023 12.9552 9.78023C13.2352 9.82023 13.5552 10.1002 13.3952 10.3802C13.1552 10.8202 12.5152 10.8202 12.1152 11.0602C12.1552 11.3002 13.3152 11.0202 13.5152 11.0202C13.7152 11.0202 13.9152 11.1002 13.7952 11.3402C13.6752 11.5802 13.2752 11.5802 13.0352 11.6202C12.7952 11.6602 12.3952 11.6602 12.2752 11.8602C12.0352 12.1802 12.5152 12.2202 12.6752 12.3002C13.0752 12.5002 12.4352 12.7002 12.2752 12.6602C11.6752 12.5402 11.5552 12.2202 11.1952 11.8202C10.8352 12.3002 9.71523 13.3802 9.47523 12.2602C9.07523 12.4202 8.67523 12.6202 8.23523 12.6602C8.43523 12.3802 8.83523 12.2602 9.15523 12.1002C9.55523 11.9002 9.55523 11.5402 9.79523 11.2202C9.87523 11.3402 9.79523 11.5002 9.83523 11.6602C10.1552 11.5002 10.5552 11.1802 10.3952 10.7802C10.3952 10.7402 9.91523 9.78023 10.3152 9.94023C10.6752 10.1002 10.5552 10.4602 10.6352 10.7402C10.7552 11.2602 10.5152 11.5402 10.1152 11.8602C9.95523 11.9802 9.51523 12.4602 10.0352 12.4602C10.3952 12.4602 10.7152 12.0602 10.9152 11.8202C11.1552 11.5002 11.0752 11.1802 10.9152 10.8202C10.7952 10.5402 10.5152 9.94023 10.8752 9.74023C11.1552 10.1802 11.2752 10.7002 11.3952 11.2202C11.4752 11.6602 11.5552 12.1002 12.0352 12.2202C11.9952 11.9002 12.1952 11.6602 12.4752 11.5402C12.2752 11.3802 11.1552 11.5802 11.5952 10.9802C11.6352 10.7002 12.4352 10.5802 12.4352 10.4202Z" fill="#F5F5F5"/>
<path d="M6.3152 11.8995C6.5152 12.4595 7.1952 12.2595 7.5952 12.0995C8.2352 11.7795 8.2352 11.2995 8.2352 10.6595C7.9952 10.7795 8.0352 11.2195 7.9552 11.4195C7.7952 11.7395 7.2752 12.0195 6.9152 11.9795C6.3952 11.8995 6.1552 11.0195 6.5552 10.6995C6.6352 10.9795 6.4352 11.5795 6.9152 11.6195C7.2752 11.6595 7.9952 11.2195 7.8752 10.8195C7.3952 10.9795 7.1152 10.8195 7.2752 10.2995C7.3952 9.8195 7.8752 10.1795 8.0752 10.4195C8.8352 9.9795 7.4752 8.2995 8.2752 7.8595C8.4352 8.1395 8.6752 8.4995 8.4752 8.7795C8.2352 9.0995 8.4752 9.7795 8.5152 10.1395C8.9152 9.7795 8.5952 10.4195 8.9152 10.4595C9.1152 10.4995 9.1952 9.9795 9.3152 9.9795C9.3552 10.0995 9.3552 10.4595 9.5552 10.4195C9.7952 10.3395 9.5152 10.0195 9.7552 9.9395C9.8352 10.1395 9.7952 10.7395 9.5152 10.6995C9.2752 10.6595 9.3152 10.4995 9.0352 10.6595C8.7952 10.7795 8.7152 10.6595 8.5552 10.5395C8.5152 11.0195 8.6752 11.5395 8.3952 11.9795C8.1552 12.3395 7.6752 12.5395 7.2752 12.6195C6.2352 12.8195 5.9552 11.7795 6.3152 10.9395C6.3952 11.1795 6.2352 11.6195 6.3152 11.8995ZM16.0752 12.0995C16.2752 12.6195 16.6752 11.5395 16.7952 11.3795C17.1152 10.8995 17.5952 12.1395 17.7952 11.3395C17.9152 10.8195 17.7552 10.2995 17.7152 9.7795C17.6752 9.4195 17.5552 9.0995 17.3152 8.8195C17.0752 8.4995 16.8352 8.2195 16.9552 7.8195C17.3552 7.9795 17.3552 8.2995 17.5552 8.6195C17.5952 8.3795 17.4352 8.0595 17.5952 7.8595C17.7952 7.5795 17.9552 8.3395 17.9552 8.4195C17.9952 8.6195 17.7952 8.6995 17.9152 9.0195C17.9952 9.2595 18.1552 9.4995 18.3152 9.6995C18.2752 9.4595 17.9152 7.8195 18.3152 7.8195C18.4352 7.8195 18.5552 8.2995 18.5552 8.3795C18.6352 8.6195 18.4752 8.8195 18.4752 9.0995C18.4352 9.5795 18.5152 10.1395 18.8352 10.4995C18.9952 10.6995 19.5952 11.4195 19.2752 11.6595C19.0352 11.3795 18.8752 11.0595 18.6752 10.7795C18.6752 11.0995 18.7552 11.4595 18.5952 11.6995C18.4352 11.6195 18.5152 11.0995 18.5152 10.9795C18.5152 10.5395 18.2352 10.1795 17.9952 9.8195C17.9152 10.4195 18.3952 11.5395 17.8352 11.9795C17.4752 12.2995 16.9952 11.5795 16.8752 11.8595C16.7552 12.0595 16.4752 12.7795 16.1552 12.6995C15.7552 12.6195 15.4752 11.4995 15.9152 11.3795C15.9552 11.5795 15.9552 11.8595 16.0752 12.0995Z" fill="#F5F5F5"/>
<path d="M7.51518 9.37981C7.79518 9.41981 7.51518 8.45981 7.51518 8.29981C7.55518 8.13981 7.67518 8.05982 7.75518 8.21982C7.87518 8.45982 7.87518 8.73981 7.91518 8.97982C7.91518 9.17982 7.95518 9.41981 7.79518 9.57982C7.55518 9.81981 7.23518 9.69982 7.11518 9.37981C6.55518 9.85981 7.27518 10.6998 6.79518 11.1798C6.71518 10.7398 6.79518 10.2598 6.63518 9.85981C6.55518 9.65981 6.19518 9.73981 6.15518 9.37981C6.15518 9.21982 6.27518 8.77981 6.11518 8.65981C6.03518 8.81981 5.95518 10.0598 5.55518 9.69981C5.23518 9.45981 5.31518 8.65981 5.43518 8.33981C5.67518 8.45981 5.39518 9.33982 5.71518 9.37981C5.87518 9.41981 5.91518 8.73982 5.95518 8.61982C6.07518 8.41982 6.47518 7.85982 6.39518 8.41982C6.35518 8.65982 6.15518 9.41981 6.63518 9.37981C6.59518 8.97982 6.55518 8.57982 6.47518 8.17982C6.43518 7.97982 6.55518 7.57981 6.71518 7.93981C6.83518 8.17981 6.75518 8.29981 6.71518 8.53981C6.67518 8.81981 6.79518 9.09981 6.83518 9.33981C7.07518 9.13981 6.75518 8.37981 6.95518 8.05981C7.43518 8.33981 6.91518 9.29982 7.51518 9.37981ZM12.6752 9.45981C12.4752 9.73981 12.1152 9.49981 11.9552 9.29981C11.7552 9.53981 11.3552 9.93982 11.0352 9.61982C10.7952 9.37982 11.0752 8.93981 10.8752 8.73981C10.7552 8.93981 10.5552 9.89981 10.1952 9.45981C9.99518 9.21981 9.71518 8.37982 10.1552 8.17982C10.1152 8.49982 10.0352 8.85981 10.2352 9.13981C10.4352 9.41981 10.6352 8.69981 10.7152 8.53981C10.8352 8.25981 11.2352 7.77982 11.1552 8.37982C11.1152 8.61982 11.0352 9.17981 11.2752 9.33981C11.4352 9.45981 11.6352 9.25981 11.7152 9.13981C11.8752 8.93981 11.7952 8.61982 11.7552 8.37982C11.7152 8.17982 11.6352 7.93981 11.7552 7.73981C11.9152 7.49981 12.0352 8.05982 12.0352 8.17982C12.0352 8.29982 12.1952 9.53981 12.4752 9.13981C12.7552 8.77981 11.9952 7.97982 12.5152 7.77982C12.7152 7.69982 13.0752 8.49981 12.6752 8.25981C12.7952 8.61981 12.9552 9.13981 12.6752 9.45981ZM14.1952 9.93981C14.2352 10.4598 14.6752 11.8998 14.0752 12.2198C13.9952 12.0598 14.0752 11.8198 14.1152 11.6198C14.1552 11.2598 14.0752 10.8998 14.0352 10.5798C13.9552 9.81981 13.8752 9.25981 13.3552 8.65981C13.2352 8.49981 13.0352 8.37981 12.9952 8.13981C12.9952 8.05981 12.9552 7.69982 13.1152 7.77982C13.2352 7.81982 13.9152 8.41982 13.5552 8.41982C13.5952 8.49982 13.7552 8.81982 13.8352 8.81982C13.8352 8.61982 13.5952 8.01981 13.8352 7.89981C14.0352 7.77981 14.2752 8.53981 14.1952 8.69981C14.1152 8.89981 14.1152 9.01981 14.1952 9.29981C14.2752 9.61981 14.4752 9.89982 14.6352 10.1798C14.8752 10.5798 15.3552 11.1398 15.2352 11.6598C14.9952 11.5398 14.8352 10.9798 14.7152 10.7398C14.6352 10.5398 14.5552 10.3398 14.4352 10.1798C14.3952 10.1398 14.1552 9.81982 14.1952 10.0198V9.93981ZM19.7552 10.6998C19.7952 11.5398 19.5152 12.6198 18.4752 12.6198C18.4752 12.3798 18.9952 12.1398 19.1552 12.0198C19.5552 11.6998 19.5152 11.0998 19.4752 10.6598C19.4352 10.0598 19.3952 9.45981 19.2752 8.85981C19.2352 8.49981 19.0352 7.97981 19.3552 7.73981C19.5552 7.89981 19.8352 8.33981 19.7152 8.49981C19.5152 8.73981 19.7152 10.5398 19.7552 10.6998Z" fill="#F5F5F5"/>
<path d="M14.6352 12.4995C15.6752 11.8995 15.3552 10.6195 15.2752 9.61946C15.2352 9.33946 15.2352 9.05946 15.1952 8.77946C15.1952 8.57946 15.0352 8.29946 15.1152 8.09946C15.3152 7.57946 15.4752 8.05946 15.5152 8.37946C15.5552 8.57946 15.3952 8.61946 15.4352 8.77946C15.4752 9.09946 15.4752 9.41946 15.5152 9.73946C15.5552 10.2595 15.6352 10.7795 15.5952 11.2595C15.5152 12.0195 15.1152 12.8595 14.1952 12.6995C14.2352 12.6195 14.5152 12.5795 14.6352 12.4995ZM16.3152 10.4995C16.3552 10.8995 16.5152 11.6195 16.3152 11.9795C16.1552 12.2195 16.1552 11.8195 16.1152 11.7795C16.0752 11.4595 16.0752 11.1395 16.0752 10.7795C15.9952 9.89946 15.7152 9.01946 15.7152 8.17946C15.7152 7.09946 16.6352 8.77946 16.1152 8.69946C16.1552 9.29946 16.2352 9.89946 16.3152 10.4995ZM9.79522 8.45946C9.87522 8.65946 8.87522 9.17946 8.75522 9.17946C8.71522 8.97946 9.19522 8.69946 9.31522 8.61946C9.43522 8.49946 9.51522 8.49946 9.47522 8.33946C9.39522 8.17946 9.43522 7.89946 9.63522 7.81946C10.0352 7.69946 9.75522 8.29946 9.79522 8.45946ZM5.67522 12.0195C5.67522 12.3395 5.79522 12.1795 5.95522 12.0995C6.03522 12.2595 5.83522 12.6995 5.63522 12.4995C5.35522 12.2195 5.59522 11.5795 5.71522 11.2995C5.79522 11.4995 5.63522 11.8195 5.67522 12.0195ZM16.9552 9.53946C16.9952 9.37946 16.8752 9.21946 16.9952 9.05946C17.1552 8.85946 17.3152 9.09946 17.2352 9.17946C17.1552 9.25946 17.0352 9.09946 17.0352 9.33946C17.0352 9.45946 17.1152 9.69946 16.9952 9.81946C16.9152 9.77946 16.5552 9.25946 16.5952 9.17946C16.7552 9.01946 16.9152 9.49946 16.9552 9.53946ZM6.51522 10.2195C6.43522 10.3795 5.51522 10.8995 5.47522 10.7795C5.47522 10.6595 6.63522 9.97946 6.51522 10.2195ZM13.3152 12.2595C13.1952 12.6195 13.7152 12.2995 13.8352 12.2595C13.6752 12.5395 13.1152 12.7795 13.1952 12.2595C13.1552 12.2595 13.0752 12.2995 13.0352 12.2995C12.9552 12.2195 13.4352 11.8995 13.3152 12.2595ZM17.6752 12.1395C17.7952 12.1395 17.9952 12.4995 17.8752 12.5795C17.7952 12.6595 17.4352 12.6995 17.6352 12.5395C17.8752 12.2995 17.6752 12.1395 17.6752 12.1395ZM12.0352 10.0995C12.0752 10.0195 12.0752 9.89946 12.1152 9.81946C12.5152 10.1395 11.4752 10.6595 11.6752 9.89946C11.7552 9.97946 11.7552 10.0995 11.8352 10.1395C11.8352 10.0595 11.8752 9.93946 11.8752 9.85946C11.9552 9.93946 11.9552 10.0595 12.0352 10.0995ZM16.7152 10.6195C16.5952 10.4595 17.3152 10.0195 17.4352 9.93946C17.5152 10.0595 16.9552 10.4995 16.7152 10.6195ZM18.9552 9.01946C18.8752 8.77946 18.6352 8.29946 18.8752 8.09946C19.0352 8.21946 19.1152 8.81946 18.9552 9.01946ZM14.5952 8.21946C14.5552 8.13946 14.4352 8.05946 14.4352 7.93946C14.4752 7.77946 14.5552 7.81946 14.6352 7.89946C14.7552 8.05946 14.8352 8.49946 14.6352 8.61946C14.6352 8.49946 14.6752 8.33946 14.5952 8.21946ZM9.71522 9.29946C9.71522 9.53946 9.31522 9.77946 9.27522 9.45946C9.23522 9.33946 9.43522 8.89946 9.51522 9.01946C9.35522 9.37946 9.35522 9.49946 9.71522 9.29946Z" fill="#F5F5F5"/>
<path d="M14.7152 8.86027C14.8752 9.26027 14.7952 8.90027 14.9552 8.82027C15.2352 9.34027 14.3552 9.22027 14.5552 8.90027C14.5952 8.94027 14.6352 9.02027 14.6352 9.06027C14.6752 9.02027 14.6752 8.94027 14.7152 8.86027ZM17.2752 10.7003C17.0752 10.5403 17.3152 10.3403 17.4352 10.5403C17.5152 10.6603 17.5152 10.9803 17.3552 11.0603C17.3552 10.9403 17.3952 10.7803 17.2752 10.7003ZM9.07522 11.5803C9.07522 11.5003 9.03522 10.9003 9.15522 10.9803C9.31522 11.0603 9.27522 11.5003 9.07522 11.5803ZM7.39522 7.82027C7.43522 7.94027 7.47522 8.10027 7.55522 7.90027C7.87522 8.26027 6.75522 8.14027 7.15522 7.78027C7.15522 7.82027 7.23522 8.06027 7.39522 7.82027ZM11.4752 8.70027C11.4752 8.54027 11.2352 7.86027 11.4352 7.86027C11.6752 7.90027 11.6352 8.50027 11.4752 8.70027ZM5.87522 8.34027C5.75522 8.30027 5.95522 8.10027 5.87522 7.94027C5.79522 7.98027 5.71522 7.86027 5.79522 7.78027C6.11522 7.54027 5.99522 8.34027 5.87522 8.34027ZM16.2352 16.4603L16.0752 15.9803L15.9152 16.4603H7.15522C7.15522 16.4603 7.23522 17.1803 8.11522 17.1803H15.8752V17.7403H17.9952V16.4603H16.2352ZM17.5952 17.4203H16.1552V17.0203H17.5952V17.4203Z" fill="#F5F5F5"/>
</svg>
