<svg width="93" height="93" viewBox="0 0 93 93" fill="none" xmlns="http://www.w3.org/2000/svg">
<path d="M88.4729 28.12C86.1482 22.6361 82.84 17.7035 78.6078 13.4863C74.3757 9.25412 69.458 5.93098 63.9741 3.62118C58.2965 1.22196 52.2612 0 46.0471 0C39.8329 0 33.7976 1.22196 28.12 3.62118C22.6361 5.94588 17.7035 9.25412 13.4863 13.4863C9.25412 17.7184 5.93098 22.6361 3.62117 28.12C1.22196 33.7976 0 39.8329 0 46.0471C0 52.2612 1.22196 58.2965 3.62117 63.9741C5.94588 69.458 9.25412 74.3906 13.4863 78.6078C17.7184 82.84 22.6361 86.1631 28.12 88.4729C33.7976 90.8722 39.8329 92.0941 46.0471 92.0941C52.2612 92.0941 58.2965 90.8722 63.9741 88.4729C69.458 86.1482 74.3906 82.84 78.6078 78.6078C82.84 74.3757 86.1631 69.458 88.4729 63.9741C90.8721 58.2965 92.0941 52.2612 92.0941 46.0471C92.0941 39.8329 90.8721 33.7976 88.4729 28.12ZM40.1757 74.2565L27.9412 63.7506L16.1686 53.6471L26.6447 41.4424L37.4784 50.7412L62.931 17.8376L75.9106 27.3302L40.1757 74.2565Z" fill="#505050"/>
</svg>
