<svg width="21" height="20" viewBox="0 0 21 20" fill="none" xmlns="http://www.w3.org/2000/svg">
<path d="M3 5.43659C3 5.10785 3.27226 4.84135 3.60811 4.84135H7.59823C7.60364 4.14033 7.67962 3.17928 8.37531 2.51398C8.9228 1.9904 9.6734 1.66675 10.5 1.66675C11.3266 1.66675 12.0772 1.9904 12.6247 2.51398C13.3204 3.17928 13.3963 4.14033 13.4018 4.84135H17.3919C17.7277 4.84135 18 5.10785 18 5.43659C18 5.76533 17.7277 6.03183 17.3919 6.03183H3.60811C3.27226 6.03183 3 5.76533 3 5.43659Z" fill="#F0516D"/>
<path fill-rule="evenodd" clip-rule="evenodd" d="M10.163 18.3334H10.837C13.1559 18.3334 14.3154 18.3334 15.0693 17.5951C15.8231 16.8569 15.9003 15.6459 16.0545 13.2238L16.2768 9.73392C16.3605 8.41976 16.4023 7.76268 16.0241 7.34629C15.6459 6.92991 15.0073 6.92991 13.73 6.92991H7.27004C5.99272 6.92991 5.35407 6.92991 4.97588 7.34629C4.59769 7.76268 4.63953 8.41976 4.72323 9.73392L4.94549 13.2238C5.09975 15.6459 5.17687 16.8569 5.93074 17.5951C6.68461 18.3334 7.84407 18.3334 10.163 18.3334ZM9.03856 10.1571C9.00422 9.7956 8.69794 9.53183 8.35448 9.56798C8.01101 9.60413 7.76042 9.92653 7.79477 10.2881L8.21143 14.674C8.24578 15.0356 8.55206 15.2994 8.89552 15.2632C9.23899 15.227 9.48958 14.9047 9.45523 14.5431L9.03856 10.1571ZM12.6455 9.56798C12.989 9.60413 13.2396 9.92653 13.2052 10.2881L12.7886 14.674C12.7542 15.0356 12.4479 15.2994 12.1045 15.2632C11.761 15.227 11.5104 14.9047 11.5448 14.5431L11.9614 10.1571C11.9958 9.7956 12.3021 9.53183 12.6455 9.56798Z" fill="#F0516D"/>
</svg>
