<svg width="45" height="29" viewBox="0 0 45 29" fill="none" xmlns="http://www.w3.org/2000/svg">
<path fill-rule="evenodd" clip-rule="evenodd" d="M42.1818 2.63636H2.63636L2.63636 26.3636H42.1818V2.63636ZM2.63636 0C1.18034 0 0 1.18034 0 2.63636V26.3636C0 27.8197 1.18034 29 2.63636 29H42.1818C43.6378 29 44.8182 27.8197 44.8182 26.3636V2.63636C44.8182 1.18034 43.6378 0 42.1818 0H2.63636Z" fill="black"/>
<path d="M36.6174 10.7135H34.5166C33.8723 10.7135 33.3961 10.9096 33.088 11.5538L29.0544 20.7415H31.9115C31.9115 20.7415 32.4157 19.509 32.4998 19.2289H36.0012C36.1132 19.5651 36.3373 20.7135 36.3373 20.7135H38.8863L36.6174 10.7415V10.7135ZM33.2841 17.1561C33.5362 16.5679 34.3765 14.355 34.3765 14.355C34.3765 14.411 34.6286 13.7667 34.7126 13.4306L34.9087 14.3269L35.553 17.2401H33.2841V17.1561ZM29.2504 17.4362C29.2504 19.509 27.3737 20.8816 24.4885 20.8816C23.256 20.8816 22.0795 20.6295 21.4353 20.3494L21.8274 18.0805L22.1636 18.2205C23.0599 18.6127 23.6482 18.7527 24.7126 18.7527C25.4969 18.7527 26.3373 18.4446 26.3373 17.7723C26.3373 17.3242 26.0011 17.044 24.9087 16.5398C23.8723 16.0356 22.4997 15.2513 22.4997 13.8508C22.4997 11.89 24.4045 10.5454 27.1216 10.5454C28.158 10.5454 29.0263 10.7415 29.5866 10.9936L29.1944 13.1505L28.9983 12.9544C28.4941 12.7583 27.8779 12.5622 26.9255 12.5622C25.8891 12.6183 25.4129 13.0664 25.4129 13.4586C25.4129 13.9068 26.0011 14.2429 26.9255 14.6911C28.4941 15.4194 29.2224 16.2597 29.2224 17.4362H29.2504ZM5.27271 10.7975L5.32873 10.6014H9.55844C10.1467 10.6014 10.5949 10.7975 10.7349 11.4418L11.6593 15.8676C10.7349 13.5146 8.55003 11.5818 5.27271 10.7975Z" fill="black"/>
<path d="M17.5974 10.7134L13.3117 20.6855H10.3985L7.93353 12.3381C9.69824 13.4585 11.1828 15.2513 11.7151 16.4558L12.0232 17.4922L14.6843 10.6574H17.5974V10.7134ZM18.7459 10.6574H21.435L19.7263 20.6855H17.0372L18.7459 10.6574Z" fill="black"/>
</svg>
