<svg width="20" height="20" viewBox="0 0 20 20" fill="none" xmlns="http://www.w3.org/2000/svg">
<path d="M5 6.6665H8.33333" stroke="#505050" stroke-linecap="round" stroke-linejoin="round"/>
<path d="M18.3333 8.75C18.3333 8.68552 18.3333 8.30605 18.3314 8.27883C18.302 7.86153 17.944 7.52914 17.4946 7.50178C17.4653 7.5 17.4306 7.5 17.3611 7.5H15.1923C13.7054 7.5 12.5 8.61929 12.5 10C12.5 11.3807 13.7054 12.5 15.1923 12.5H17.3611C17.4306 12.5 17.4653 12.5 17.4946 12.4982C17.944 12.4709 18.302 12.1385 18.3314 11.7212C18.3333 11.6939 18.3333 11.3145 18.3333 11.25" stroke="#505050" stroke-linecap="round"/>
<circle cx="14.9998" cy="9.99984" r="0.5" fill="#505050" stroke="#505050" stroke-width="0.666666"/>
<path d="M10.8332 3.3335C13.9759 3.3335 15.5472 3.3335 16.5235 4.30981C17.197 4.98328 17.4059 5.93991 17.4707 7.50016M8.33317 16.6668H10.8332C13.9759 16.6668 15.5472 16.6668 16.5235 15.6905C17.197 15.017 17.4059 14.0604 17.4707 12.5002M7.49984 3.33427C4.90458 3.34187 3.52873 3.4239 2.64281 4.30981C1.6665 5.28612 1.6665 6.85747 1.6665 10.0002C1.6665 13.1429 1.6665 14.7142 2.64281 15.6905C3.18713 16.2348 3.91641 16.4757 4.99984 16.5823" stroke="#505050" stroke-linecap="round"/>
</svg>
