<svg width="39" height="37" viewBox="0 0 39 37" fill="none" xmlns="http://www.w3.org/2000/svg">
<rect x="0.759521" width="38.1212" height="37" rx="7" fill="#F5F5F5"/>
<path d="M20.3825 11.2122H20.3788C16.3605 11.2122 13.0928 14.4808 13.0928 18.5C13.0928 20.0943 13.6066 21.5719 14.4802 22.7716L13.572 25.4791L16.3732 24.5836C17.5256 25.347 18.9003 25.7879 20.3825 25.7879C24.4008 25.7879 27.6685 22.5184 27.6685 18.5C27.6685 14.4817 24.4008 11.2122 20.3825 11.2122ZM24.6231 21.5036C24.4473 22 23.7495 22.4118 23.1929 22.5321C22.8121 22.6131 22.3147 22.6778 20.6403 21.9836C18.4986 21.0963 17.1193 18.92 17.0118 18.7788C16.9089 18.6376 16.1464 17.6264 16.1464 16.5806C16.1464 15.5348 16.6775 15.0255 16.8916 14.8069C17.0674 14.6274 17.358 14.5455 17.6368 14.5455C17.727 14.5455 17.808 14.55 17.8809 14.5537C18.095 14.5628 18.2025 14.5755 18.3437 14.9135C18.5195 15.3371 18.9477 16.3829 18.9987 16.4904C19.0506 16.5979 19.1025 16.7437 19.0297 16.8849C18.9613 17.0306 18.9012 17.0953 18.7937 17.2192C18.6862 17.3431 18.5842 17.4378 18.4767 17.5708C18.3783 17.6865 18.2672 17.8104 18.3911 18.0245C18.515 18.234 18.9431 18.9328 19.5735 19.4939C20.387 20.2182 21.0466 20.4495 21.2825 20.5479C21.4583 20.6208 21.6679 20.6035 21.7963 20.4669C21.9594 20.291 22.1607 19.9995 22.3657 19.7126C22.5114 19.5067 22.6955 19.4812 22.8886 19.554C23.0854 19.6224 24.1266 20.1371 24.3407 20.2437C24.5548 20.3512 24.696 20.4022 24.7479 20.4924C24.7989 20.5825 24.7989 21.0062 24.6231 21.5036Z" fill="#505050"/>
</svg>
