<svg width="39" height="37" viewBox="0 0 39 37" fill="none" xmlns="http://www.w3.org/2000/svg">
<rect x="0.638428" width="38.1212" height="37" rx="7" fill="#F5F5F5"/>
<path d="M22.3388 12.3364V12.3334H23.0749L23.3438 12.3901C23.5231 12.427 23.6859 12.4752 23.8321 12.535C23.9784 12.5947 24.1199 12.6644 24.2567 12.744C24.3936 12.8237 24.5176 12.9048 24.629 12.9874C24.7394 13.0691 24.8385 13.1557 24.9262 13.2473C25.013 13.3398 25.1484 13.3637 25.3324 13.3189C25.5164 13.2741 25.7146 13.2119 25.9269 13.1323C26.1392 13.0526 26.3492 12.963 26.5568 12.8635C26.7644 12.7639 26.8908 12.7007 26.9361 12.6738C26.9804 12.646 27.004 12.631 27.0069 12.629L27.0097 12.6246L27.0238 12.6171L27.038 12.6096L27.0522 12.6022L27.0663 12.5947L27.0691 12.5902L27.0734 12.5872L27.0777 12.5843L27.0805 12.5798L27.0946 12.5753L27.1087 12.5723L27.1059 12.5947L27.1017 12.6171L27.0946 12.6395L27.0876 12.6619L27.0805 12.6768L27.0734 12.6918L27.0663 12.7142C27.0616 12.7291 27.0569 12.749 27.0522 12.7739C27.0475 12.7988 27.0026 12.8983 26.9177 13.0726C26.8328 13.2468 26.7266 13.4235 26.5992 13.6027C26.4718 13.7819 26.3576 13.9173 26.2567 14.0088C26.1548 14.1014 26.0873 14.1661 26.0543 14.203C26.0213 14.2408 25.9812 14.2756 25.934 14.3075L25.8632 14.3568L25.8491 14.3642L25.8349 14.3717L25.8321 14.3762L25.8278 14.3792L25.8236 14.3822L25.8207 14.3866L25.8066 14.3941L25.7925 14.4016L25.7897 14.4061L25.7853 14.409L25.7811 14.412L25.7783 14.4165L25.7754 14.421L25.7712 14.424L25.767 14.427L25.7641 14.4315H25.8349L26.2312 14.3419C26.4955 14.2821 26.7479 14.2099 26.9884 14.1253L27.3707 13.9909L27.4131 13.976L27.4343 13.9685L27.4485 13.9611L27.4626 13.9536L27.4768 13.9461L27.491 13.9387L27.5192 13.9342L27.5476 13.9312V13.9611L27.5405 13.964L27.5334 13.9685L27.5306 13.973L27.5263 13.976L27.522 13.979L27.5192 13.9835L27.5164 13.9879L27.5122 13.9909L27.5079 13.9939L27.5051 13.9984L27.5023 14.0029L27.498 14.0059L27.491 14.0208L27.4838 14.0357L27.4796 14.0387C27.4777 14.0417 27.4178 14.1263 27.2999 14.2926C27.1819 14.4598 27.1182 14.5444 27.1087 14.5464C27.0993 14.5494 27.0861 14.5643 27.0691 14.5912C27.0531 14.6191 26.9531 14.7301 26.7691 14.9242C26.5851 15.1184 26.4049 15.2911 26.2284 15.4424C26.051 15.5947 25.9614 15.7819 25.9595 16.0039C25.9567 16.2249 25.9458 16.4748 25.9269 16.7535C25.908 17.0323 25.8727 17.3334 25.8207 17.6569C25.7689 17.9805 25.6886 18.3464 25.5801 18.7546C25.4716 19.1626 25.3395 19.5609 25.1838 19.9492C25.0281 20.3374 24.8653 20.6859 24.6955 20.9945C24.5257 21.3031 24.3699 21.5644 24.2284 21.7785C24.0868 21.9925 23.943 22.194 23.7967 22.3832C23.6505 22.5724 23.4655 22.7855 23.2419 23.0223C23.0173 23.2583 22.8947 23.3877 22.8739 23.4106C22.8522 23.4325 22.7597 23.5142 22.5964 23.6555C22.4341 23.7978 22.2596 23.9402 22.0727 24.0826C21.8868 24.2239 21.7161 24.3419 21.5603 24.4365C21.4046 24.5311 21.2169 24.6391 20.997 24.7605C20.7781 24.883 20.5412 24.9965 20.2865 25.101C20.0317 25.2055 19.7628 25.3026 19.4797 25.3922C19.1966 25.4818 18.9229 25.5515 18.6588 25.6012C18.3946 25.651 18.0949 25.6933 17.76 25.7282L17.2575 25.7804V25.7879H16.3375V25.7804L16.2171 25.773C16.1369 25.768 16.0709 25.763 16.019 25.7581C15.9671 25.7531 15.7713 25.7257 15.4316 25.6759C15.0919 25.6261 14.8253 25.5763 14.6319 25.5266C14.4385 25.4768 14.1506 25.3823 13.7685 25.2428C13.3863 25.1035 13.0594 24.9627 12.7876 24.8203C12.5168 24.6789 12.3469 24.5893 12.278 24.5514C12.2101 24.5146 12.1337 24.4689 12.0487 24.4141L11.9214 24.332L11.9185 24.3275L11.9143 24.3245L11.91 24.3215L11.9072 24.317L11.893 24.3096L11.8789 24.3021L11.8761 24.2976L11.8718 24.2946L11.8676 24.2916L11.8647 24.2871L11.8619 24.2827L11.8577 24.2797H11.8506V24.2498L11.8647 24.2528L11.8789 24.2573L11.9426 24.2648C11.9851 24.2697 12.1006 24.2772 12.2894 24.2871C12.4781 24.2972 12.6786 24.2972 12.8909 24.2871C13.1032 24.2772 13.3203 24.2548 13.542 24.22C13.7638 24.1851 14.0256 24.1254 14.3276 24.0408C14.6295 23.9562 14.907 23.8556 15.1598 23.7391C15.4118 23.6217 15.5911 23.534 15.6977 23.4763C15.8034 23.4196 15.9647 23.314 16.1818 23.1597L16.5073 22.9282L16.5101 22.9238L16.5144 22.9208L16.5186 22.9178L16.5215 22.9134L16.5243 22.9088L16.5285 22.9059L16.5328 22.9028L16.5356 22.8984L16.5498 22.8939L16.5639 22.8909L16.5668 22.876L16.571 22.8611L16.5753 22.8581L16.5781 22.8536L16.4648 22.8462C16.3894 22.8412 16.3162 22.8362 16.2455 22.8312C16.1747 22.8262 16.0638 22.8039 15.9128 22.764C15.7619 22.7242 15.5991 22.6644 15.4245 22.5848C15.25 22.5052 15.0801 22.4106 14.915 22.3011C14.7498 22.1916 14.6305 22.1004 14.5569 22.0278C14.4842 21.9561 14.3898 21.8546 14.2738 21.7232C14.1587 21.5908 14.0586 21.4549 13.9737 21.3155C13.8888 21.1761 13.8076 21.0153 13.7303 20.8332L13.6128 20.5614L13.6057 20.539L13.5986 20.5166L13.5944 20.5017L13.5915 20.4867L13.6128 20.4897L13.634 20.4942L13.7897 20.5166C13.8935 20.5316 14.0563 20.5365 14.278 20.5316C14.4998 20.5266 14.6531 20.5166 14.738 20.5017C14.823 20.4867 14.8749 20.4767 14.8937 20.4718L14.922 20.4644L14.9574 20.4569L14.9928 20.4494L14.9956 20.445L14.9999 20.4419L15.0041 20.439L15.007 20.4344L14.9787 20.427L14.9503 20.4196L14.922 20.4121L14.8937 20.4046L14.8654 20.3971C14.8466 20.3921 14.8135 20.3822 14.7663 20.3673C14.7192 20.3524 14.5918 20.2976 14.3842 20.203C14.1766 20.1084 14.0115 20.0163 13.8888 19.9268C13.7658 19.8369 13.6485 19.7386 13.5378 19.6325C13.4274 19.5251 13.3061 19.3867 13.174 19.2175C13.0419 19.0482 12.924 18.8516 12.8201 18.6276C12.7164 18.4036 12.6385 18.1895 12.5866 17.9855C12.5349 17.7825 12.5008 17.5752 12.4847 17.3658L12.4592 17.0522L12.4734 17.0552L12.4875 17.0596L12.5017 17.0671L12.5158 17.0746L12.53 17.082L12.5441 17.0895L12.7635 17.194C12.9098 17.2637 13.0914 17.3235 13.3085 17.3732C13.5255 17.423 13.6552 17.4504 13.6977 17.4554L13.7614 17.4628H13.8888L13.886 17.4584L13.8817 17.4554L13.8775 17.4524L13.8746 17.4479L13.8718 17.4434L13.8676 17.4405L13.8633 17.4374L13.8605 17.433L13.8463 17.4255L13.8322 17.418L13.8294 17.4136L13.8251 17.4105L13.8208 17.4076L13.818 17.4031L13.8039 17.3956L13.7897 17.3882L13.7869 17.3837C13.7841 17.3817 13.7435 17.3498 13.6651 17.2881C13.5878 17.2254 13.5066 17.1443 13.4217 17.0447C13.3368 16.9451 13.2518 16.8406 13.1669 16.7311C13.0818 16.6214 13.0061 16.5039 12.9405 16.3802C12.8744 16.2558 12.8046 16.0975 12.731 15.9053C12.6583 15.7142 12.6031 15.5215 12.5654 15.3274C12.5276 15.1333 12.5064 14.9417 12.5017 14.7525C12.497 14.5633 12.5017 14.4016 12.5158 14.2672C12.53 14.1328 12.5583 13.981 12.6008 13.8117C12.6432 13.6425 12.7046 13.4633 12.7848 13.2741L12.9051 12.9904L12.9121 12.968L12.9192 12.9456L12.9235 12.9426L12.9263 12.9382L12.9291 12.9337L12.9334 12.9307L12.9376 12.9337L12.9405 12.9382L12.9433 12.9426L12.9475 12.9456L12.9518 12.9486L12.9546 12.9531L12.9574 12.9576L12.9617 12.9606L12.9688 12.9755L12.9758 12.9904L12.9801 12.9934L12.9829 12.9979L13.174 13.2219C13.3014 13.3712 13.4524 13.538 13.6269 13.7221C13.8015 13.9063 13.8982 14.0019 13.9171 14.0088C13.936 14.0168 13.9596 14.0397 13.9879 14.0775C14.0162 14.1144 14.1105 14.2025 14.2709 14.3419C14.4314 14.4812 14.6413 14.643 14.9008 14.8272C15.1603 15.0113 15.4481 15.193 15.7642 15.3722C16.0803 15.5514 16.42 15.7132 16.7833 15.8575C17.1466 16.0019 17.4014 16.0965 17.5476 16.1413C17.6939 16.1861 17.944 16.2433 18.2978 16.313C18.6517 16.3827 18.9182 16.4275 19.0975 16.4474C19.2768 16.4673 19.3995 16.4787 19.4655 16.4817L19.5646 16.4847L19.5618 16.4623L19.5576 16.4399L19.5292 16.2533C19.5103 16.1288 19.5009 15.9546 19.5009 15.7306C19.5009 15.5066 19.5175 15.3001 19.5504 15.1109C19.5835 14.9217 19.6331 14.7301 19.6991 14.536C19.7652 14.3419 19.8297 14.186 19.893 14.0686C19.9571 13.9521 20.0411 13.8192 20.1449 13.6699C20.2487 13.5205 20.3832 13.3662 20.5484 13.207C20.7135 13.0477 20.9022 12.9058 21.1145 12.7814C21.3268 12.6569 21.5226 12.5623 21.7018 12.4976C21.8812 12.4329 22.0322 12.3906 22.1548 12.3707C22.2775 12.3508 22.3388 12.3393 22.3388 12.3364Z" fill="#505050"/>
</svg>
